<?xml version="1.0" encoding="UTF-8"?>
<svg version="1.1" xmlns="http://www.w3.org/2000/svg" width="500" height="500">
<path d="M0 0 C165 0 330 0 500 0 C500 165 500 330 500 500 C335 500 170 500 0 500 C0 335 0 170 0 0 Z " fill="#0B0B0B" transform="translate(0,0)"/>
<path d="M0 0 C76.23 0 152.46 0 231 0 C231 4.29 231 8.58 231 13 C154.77 13 78.54 13 0 13 C0 8.71 0 4.42 0 0 Z " fill="#EB3F71" transform="translate(219,212)"/>
<path d="M0 0 C50.16 0 100.32 0 152 0 C152 4.62 152 9.24 152 14 C101.84 14 51.68 14 0 14 C0 9.38 0 4.76 0 0 Z " fill="#4269E7" transform="translate(48,273)"/>
<path d="M0 0 C4.24438546 2.73452502 7.04375321 6.62791341 8.9765625 11.2734375 C9.76206211 17.84307059 9.46794329 24.51134665 5.9765625 30.2734375 C0.86108508 35.50517577 -4.62997442 38.37413981 -11.9609375 38.7109375 C-17.98050189 38.49171209 -22.49066049 36.75103418 -26.81640625 32.51953125 C-31.18014398 27.55461351 -32.21025487 24.77061053 -32.3359375 18.0234375 C-32.37332031 16.71890625 -32.41070312 15.414375 -32.44921875 14.0703125 C-31.84269778 8.66170346 -29.28757478 4.92199175 -25.0859375 1.5234375 C-17.23005889 -4.24822842 -8.67698287 -4.32316108 0 0 Z " fill="#F6F6F6" transform="translate(390.0234375,247.7265625)"/>
<path d="M0 0 C2.97 0 5.94 0 9 0 C11.64 7.26 14.28 14.52 17 22 C19.26014093 15.50856916 19.26014093 15.50856916 21.51733398 9.01611328 C21.79907471 8.20899902 22.08081543 7.40188477 22.37109375 6.5703125 C22.65911865 5.74289551 22.94714355 4.91547852 23.24389648 4.06298828 C24 2 24 2 25 0 C27.97 0 30.94 0 34 0 C36.83161469 6.9434807 39.47627343 13.93893523 42 21 C43.71700545 18.42449182 44.56997075 16.64422008 45.5078125 13.76953125 C45.77207031 12.96708984 46.03632812 12.16464844 46.30859375 11.33789062 C46.57800781 10.50451172 46.84742188 9.67113281 47.125 8.8125 C47.40214844 7.96751953 47.67929688 7.12253906 47.96484375 6.25195312 C48.64729604 4.169297 49.32418681 2.08481994 50 0 C53.3 0 56.6 0 60 0 C58.3132734 5.39471834 56.62252518 10.78815283 54.92797852 16.18041992 C54.35166493 18.01633228 53.77646679 19.85259516 53.20239258 21.68920898 C52.37872172 24.3236765 51.55109381 26.95687189 50.72265625 29.58984375 C50.46533218 30.41588608 50.20800812 31.24192841 49.94288635 32.09300232 C48.11387171 37.88612829 48.11387171 37.88612829 47 39 C44.03 39 41.06 39 38 39 C35.36 31.41 32.72 23.82 30 16 C28.22348795 18.66476807 27.29988696 20.68366199 26.2734375 23.66796875 C25.809375 25.00698242 25.809375 25.00698242 25.3359375 26.37304688 C25.01882812 27.30181641 24.70171875 28.23058594 24.375 29.1875 C23.88773438 30.59805664 23.88773438 30.59805664 23.390625 32.03710938 C22.58992448 34.35678589 21.79320965 36.67775352 21 39 C18.03 39 15.06 39 12 39 C10.28526381 33.92989904 8.57642653 28.85786321 6.87304688 23.78393555 C6.29263794 22.05780326 5.71061526 20.33221272 5.12695312 18.60717773 C4.28872539 16.12884623 3.45630328 13.64863015 2.625 11.16796875 C2.23127197 10.01001045 2.23127197 10.01001045 1.82958984 8.82865906 C0.8105184 5.77240588 0 3.24447245 0 0 Z " fill="#F9F9F9" transform="translate(48,212)"/>
<path d="M0 0 C3.50625 -0.061875 7.0125 -0.12375 10.625 -0.1875 C11.71893066 -0.21481201 12.81286133 -0.24212402 13.93994141 -0.27026367 C20.35708143 -0.32500537 25.0537787 0.15198607 29.875 4.8125 C31.4325711 7.84111047 31.46401051 9.61935197 31 13 C29.84013312 15.49547116 28.49029175 17.67141915 27 20 C27.99 20.33 28.98 20.66 30 21 C32.28647811 24.24920574 32.46672791 27.11060074 32 31 C30.27396426 34.45207148 29.0845318 36.48206655 25.5625 38.1640625 C20.55553435 39.3389426 15.74580256 39.21023357 10.625 39.125 C7.11875 39.08375 3.6125 39.0425 0 39 C0 26.13 0 13.26 0 0 Z " fill="#F7F7F7" transform="translate(170,212)"/>
<path d="M0 0 C8 0 8 0 10.7578125 2.52734375 C11.57341732 3.64517107 12.36218477 4.78300354 13.125 5.9375 C13.51558594 6.48212891 13.90617187 7.02675781 14.30859375 7.58789062 C17.65575297 12.30335109 20.79616865 17.19425298 24 22 C24.33 14.74 24.66 7.48 25 0 C27.97 0 30.94 0 34 0 C34 12.87 34 25.74 34 39 C26 39 26 39 23.83837891 37.3034668 C23.30647949 36.52656494 22.77458008 35.74966309 22.2265625 34.94921875 C21.62972656 34.10552734 21.03289062 33.26183594 20.41796875 32.39257812 C19.82628906 31.49990234 19.23460937 30.60722656 18.625 29.6875 C18.01011719 28.80642578 17.39523437 27.92535156 16.76171875 27.01757812 C15.14747882 24.69512133 13.56526827 22.35562668 12 20 C11.34 19.01 10.68 18.02 10 17 C9.67 24.26 9.34 31.52 9 39 C6.03 39 3.06 39 0 39 C0 26.13 0 13.26 0 0 Z " fill="#F9F9F9" transform="translate(305,246)"/>
<path d="M0 0 C9 0 9 0 11.07568359 1.49707031 C11.51219238 2.18381836 11.94870117 2.87056641 12.3984375 3.578125 C12.89730469 4.32707031 13.39617187 5.07601562 13.91015625 5.84765625 C14.39355469 6.64042969 14.87695312 7.43320313 15.375 8.25 C15.88160156 9.02730469 16.38820313 9.80460938 16.91015625 10.60546875 C17.85489346 12.05604951 18.78671584 13.51518971 19.70068359 14.98535156 C21.03637816 17.05640598 22.52135038 19.02846717 24 21 C24.33 14.07 24.66 7.14 25 0 C27.97 0 30.94 0 34 0 C34 12.87 34 25.74 34 39 C26 39 26 39 23.94604492 37.42700195 C23.46240479 36.70472412 22.97876465 35.98244629 22.48046875 35.23828125 C21.93326172 34.44873047 21.38605469 33.65917969 20.82226562 32.84570312 C20.28279297 32.00974609 19.74332031 31.17378906 19.1875 30.3125 C18.62869141 29.49587891 18.06988281 28.67925781 17.49414062 27.83789062 C14.85954754 23.95979473 12.4139328 20.02322134 10 16 C9.67 23.59 9.34 31.18 9 39 C6.03 39 3.06 39 0 39 C0 26.13 0 13.26 0 0 Z " fill="#F6F6F6" transform="translate(250,246)"/>
<path d="M0 0 C8.25 0 16.5 0 25 0 C25 2.31 25 4.62 25 7 C19.39 7 13.78 7 8 7 C8 9.64 8 12.28 8 15 C13.28 15 18.56 15 24 15 C24 17.64 24 20.28 24 23 C19.05 23 14.1 23 9 23 C9 25.64 9 28.28 9 31 C14.61 31 20.22 31 26 31 C26 33.64 26 36.28 26 39 C17.42 39 8.84 39 0 39 C0 26.13 0 13.26 0 0 Z " fill="#F8F8F8" transform="translate(125,212)"/>
<path d="M0 0 C3.3 0 6.6 0 10 0 C12.97 7.92 15.94 15.84 19 24 C21.54465973 17.5989126 21.54465973 17.5989126 24.08544922 11.19628906 C24.40529785 10.39416992 24.72514648 9.59205078 25.0546875 8.765625 C25.37937012 7.94868164 25.70405273 7.13173828 26.03857422 6.29003906 C26.93565132 4.15327338 27.9636106 2.07277879 29 0 C31.97 0 34.94 0 38 0 C35.5814588 8.56807427 32.50392078 16.82464561 29.3125 25.125 C28.79589779 26.47643786 28.27961945 27.82799958 27.76367188 29.1796875 C26.51283904 32.45455893 25.257653 35.7277407 24 39 C21.03 39 18.06 39 15 39 C11.2106139 30.93875683 7.86553855 22.75689868 4.6875 14.4375 C4.23310547 13.26380859 3.77871094 12.09011719 3.31054688 10.88085938 C2.66762695 9.20540039 2.66762695 9.20540039 2.01171875 7.49609375 C1.62459717 6.48732178 1.23747559 5.4785498 0.83862305 4.43920898 C0 2 0 2 0 0 Z " fill="#F8F8F8" transform="translate(414,246)"/>
<path d="M0 0 C3.12578143 1.6720747 5.39281175 3.7856235 7 7 C7.35017306 12.3401391 7.46830225 15.66462219 4 20 C0.20062081 23.38729901 -2.63614516 23.56109792 -7.5859375 23.4296875 C-11.25566441 22.77649986 -12.84144922 20.92448816 -15 18 C-16.84862688 14.30274625 -16.47587094 10.03538558 -16 6 C-11.99944995 -0.53423175 -7.2462672 -1.0209136 0 0 Z " fill="#0E0E0E" transform="translate(383,254)"/>
<path d="M0 0 C2.97 0 5.94 0 9 0 C9 12.87 9 25.74 9 39 C6.03 39 3.06 39 0 39 C0 26.13 0 13.26 0 0 Z " fill="#F2F2F2" transform="translate(220,246)"/>
<path d="M0 0 C1.95803507 -0.05389087 3.91648909 -0.09274217 5.875 -0.125 C7.51082031 -0.15980469 7.51082031 -0.15980469 9.1796875 -0.1953125 C12 0 12 0 14 2 C13.67028521 5.29714793 13.3773161 6.6226839 11 9 C8.3984375 9.1953125 8.3984375 9.1953125 5.375 9.125 C3.87066406 9.09792969 3.87066406 9.09792969 2.3359375 9.0703125 C1.56507813 9.04710937 0.79421875 9.02390625 0 9 C0 6.03 0 3.06 0 0 Z " fill="#111111" transform="translate(179,235)"/>
<path d="M0 0 C1.62490954 -0.02698189 3.24994633 -0.04638757 4.875 -0.0625 C5.77992188 -0.07410156 6.68484375 -0.08570313 7.6171875 -0.09765625 C10 0 10 0 12 1 C12.125 3.875 12.125 3.875 12 7 C10 9 10 9 7.6171875 9.1953125 C6.71226562 9.17210937 5.80734375 9.14890625 4.875 9.125 C3.50988281 9.09792969 3.50988281 9.09792969 2.1171875 9.0703125 C1.41851562 9.04710937 0.71984375 9.02390625 0 9 C0 6.03 0 3.06 0 0 Z " fill="#121212" transform="translate(179,219)"/>
</svg>
